<?xml version="1.0" encoding="utf-8"?>
<!-- Generator: Adobe Illustrator 25.2.3, SVG Export Plug-In . SVG Version: 6.00 Build 0)  -->
<svg version="1.1" id="Layer_1" xmlns="http://www.w3.org/2000/svg" xmlns:xlink="http://www.w3.org/1999/xlink" x="0px" y="0px"
	 viewBox="0 0 120 40" style="enable-background:new 0 0 120 40;" xml:space="preserve">
<style type="text/css">
	.st0{fill:#999999;}
</style>
<g>
	<g>
		<g>
			<polygon class="st0" points="50.7,13 48.7,13 42.7,17.4 42.7,13 41.3,13 41.3,21.5 42.7,21.5 42.7,18.9 45.3,17 49.4,21.5 
				51.2,21.5 46.4,16.2 			"/>
			<polygon class="st0" points="59.9,17.7 64.9,17.7 64.9,16.5 59.9,16.5 59.9,14.3 67.1,14.3 67.1,13 58.5,13 58.5,21.5 67.4,21.5 
				67.4,20.2 59.9,20.2 			"/>
			<path class="st0" d="M84.3,14.2c-0.4-0.4-0.9-0.7-1.5-0.9c-0.6-0.2-1.3-0.3-2-0.3h-5.4v8.5h5.7c0.6,0,1.2-0.1,1.7-0.3
				c0.5-0.2,1-0.5,1.4-0.8c0.5-0.4,0.8-0.9,1-1.4c0.2-0.5,0.3-1.1,0.3-1.7c0-0.7-0.1-1.3-0.3-1.8C85.1,15,84.8,14.6,84.3,14.2z
				 M83.9,18.5c-0.1,0.4-0.3,0.7-0.6,0.9c-0.3,0.3-0.6,0.5-0.9,0.6c-0.4,0.1-0.7,0.2-1.2,0.2h-4.4v-6h4.1c0.5,0,0.9,0.1,1.3,0.2
				c0.4,0.1,0.7,0.4,1,0.6c0.3,0.3,0.5,0.6,0.6,1c0.2,0.4,0.2,0.8,0.2,1.2C84.1,17.7,84,18.1,83.9,18.5z"/>
			<path class="st0" d="M96.7,13l-4.5,8.5h1.5l1-1.9h5.7l1,1.9h1.5L98.4,13H96.7z M95.4,18.3l2.2-4.1l2.2,4.1H95.4z"/>
			<path class="st0" d="M118.6,17.9c0.3-0.1,0.5-0.3,0.7-0.5c0.2-0.2,0.4-0.5,0.5-0.7c0.1-0.3,0.2-0.6,0.2-1c0-0.8-0.3-1.5-0.8-2
				c-0.5-0.5-1.2-0.7-2.1-0.7h-6.7v8.5h1.4v-3.2h4.3l2.3,3.2h1.6l-2.3-3.3C118,18.1,118.3,18,118.6,17.9z M111.8,17v-2.7h5
				c1.2,0,1.8,0.5,1.8,1.4c0,0.4-0.1,0.8-0.4,1c-0.3,0.2-0.7,0.3-1.2,0.3H111.8z"/>
		</g>
		<g>
			<polygon class="st0" points="50.7,29.2 48.7,29.2 42.7,33.6 42.7,29.2 41.3,29.2 41.3,37.7 42.7,37.7 42.7,35.2 45.3,33.3 
				49.4,37.7 51.2,37.7 46.4,32.5 			"/>
			<path class="st0" d="M62,29.2l-4.5,8.5H59l1-1.9h5.7l1,1.9h1.5l-4.5-8.5H62z M60.7,34.6l2.2-4.1l2.2,4.1H60.7z"/>
			<polygon class="st0" points="77.1,29.2 75.7,29.2 75.7,37.7 83.6,37.7 83.6,36.5 77.1,36.5 			"/>
			<path class="st0" d="M96.8,29.2H95l-4.5,8.5h1.5l1-1.9h5.7l1,1.9h1.5L96.8,29.2z M93.8,34.6l2.2-4.1l2.2,4.1H93.8z"/>
		</g>
	</g>
	<g>
		<path class="st0" d="M29.9,32.6c0.1,0,0.1-0.1,0.1-0.2c0-0.1,0-0.2-0.1-0.3c-0.1-0.1-0.1-0.1-0.2,0c0,0,0,0,0,0
			C29.9,32.2,29.9,32.5,29.9,32.6C29.8,32.6,29.9,32.6,29.9,32.6z M29.9,32.5c0-0.1,0-0.1,0-0.2C29.9,32.3,29.9,32.4,29.9,32.5z
			 M29.9,32.2c0,0.1,0,0.2,0,0.2C29.9,32.4,29.9,32.3,29.9,32.2z"/>
		<path class="st0" d="M29.8,32.5c0,0,0-0.1,0-0.2c0-0.1,0-0.1-0.1-0.2c-0.1-0.1-0.2-0.1-0.2,0c-0.1,0.1-0.1,0.3,0,0.4
			C29.6,32.7,29.8,32.6,29.8,32.5z M29.8,32.1c0.1,0.1,0.1,0.1,0.1,0.2c0,0.1,0,0.2-0.1,0.2c0,0-0.1,0-0.1,0c0,0,0,0,0,0
			c0.1,0,0.1,0,0.1,0C29.8,32.5,29.9,32.3,29.8,32.1c0,0,0,0-0.1,0c0,0,0,0,0,0C29.7,32.1,29.7,32.1,29.8,32.1z M29.6,32.2
			c0.1-0.1,0.1-0.1,0.2,0c0,0,0.1,0.1,0.1,0.2c0,0.1,0,0.1-0.1,0.2c-0.1,0.1-0.1,0.1-0.2,0C29.5,32.5,29.5,32.3,29.6,32.2z"/>
		<path class="st0" d="M29.8,32.1c0.1-0.1,0.2,0,0.2,0.1c0.1,0.1,0.1,0.3,0,0.4c0,0-0.1,0.1-0.1,0c0,0,0,0,0,0c0.1,0,0.2,0,0.2,0
			c0.1-0.1,0.1-0.4,0-0.5C29.9,32,29.8,32,29.8,32.1C29.7,32.1,29.8,32.1,29.8,32.1z M30.1,32.3c0,0.1,0,0.2-0.1,0.2
			C30,32.5,30,32.4,30.1,32.3c0-0.1,0-0.1-0.1-0.2C30,32.2,30.1,32.2,30.1,32.3z"/>
		<path class="st0" d="M29.6,32.5C29.5,32.5,29.5,32.5,29.6,32.5C29.5,32.5,29.6,32.5,29.6,32.5c0.1,0.1,0.1,0.1,0.1,0
			c0.1-0.1,0.1-0.3,0-0.3c0,0-0.1,0-0.1,0c0,0,0,0.1,0,0.1c0,0,0,0,0,0c0,0,0-0.1,0-0.1c0,0,0.1,0,0.1,0c0.1,0.1,0.1,0.2,0,0.3
			C29.7,32.6,29.6,32.6,29.6,32.5z"/>
		<path class="st0" d="M0,2.3v3.4h0.7V3h34.2V37H34V26.5h-6.2v10.9L9,24.8l7.2-16.9l-0.8,0L8.2,25.1L27,37.7h1.3h0v0l0,0l0-0.1l0,0
			V27h5.2L29,28.1v8.4l4.9,1.2v-0.2h0v0.2h1.7V2.3H0z M33.5,37.3l-4.1-1v-7.9l4.1-1V37.3z"/>
		<path class="st0" d="M13.8,7.8l-0.8,0L5.4,25.3l-4.7-3.2V7.8H0v29.9h0.7v0l0,0l5-11.4L21.5,37l1.1,0.7h1.3L6,25.7L13.8,7.8z
			 M0.7,36V23l4.4,3L0.7,36z"/>
	</g>
</g>
</svg>
