<?xml version="1.0" encoding="utf-8"?>
<!-- Generator: Adobe Illustrator 24.1.0, SVG Export Plug-In . SVG Version: 6.00 Build 0)  -->
<svg version="1.1" id="Layer_1" xmlns="http://www.w3.org/2000/svg" xmlns:xlink="http://www.w3.org/1999/xlink" x="0px" y="0px"
	 viewBox="0 0 140 25" style="enable-background:new 0 0 140 25;" xml:space="preserve">
<style type="text/css">
	.st0{fill:#1A1A1A;}
	.st1{opacity:0.5;fill:#1A1A1A;enable-background:new    ;}
</style>
<g>
	<g>
		<g>
			<path class="st0" d="M35.1,25l-2.8-3.1l-1.8,1.3V25h-1v-5.8h1v3l4.1-3H36l-3,2.2l3.3,3.6C36.3,25,35.1,25,35.1,25z"/>
			<path class="st0" d="M41.3,25v-5.8h5.9V20h-4.9v1.5h3.4v0.9h-3.4v1.7h5.2V25H41.3z"/>
			<path class="st0" d="M56.6,19.2c0.5,0,1,0.1,1.4,0.2s0.8,0.3,1,0.6c0.3,0.3,0.5,0.6,0.7,0.9c0.2,0.4,0.2,0.8,0.2,1.2
				c0,0.4-0.1,0.8-0.2,1.1c-0.2,0.4-0.4,0.7-0.7,0.9c-0.3,0.3-0.6,0.4-1,0.6c-0.4,0.1-0.8,0.2-1.2,0.2h-3.9v-5.8L56.6,19.2
				L56.6,19.2z M56.9,24.1c0.3,0,0.6,0,0.8-0.1s0.5-0.2,0.6-0.4c0.2-0.2,0.3-0.4,0.4-0.6c0.1-0.2,0.1-0.5,0.1-0.8s-0.1-0.6-0.2-0.9
				c-0.1-0.3-0.3-0.5-0.4-0.7c-0.2-0.2-0.4-0.3-0.7-0.4C57.3,20.1,57,20,56.7,20h-2.8v4.1H56.9z"/>
			<path class="st0" d="M70.8,25l-0.7-1.3h-3.9L65.5,25h-1.1l3.1-5.8h1.2l3.1,5.8H70.8z M68.1,20l-1.5,2.8h3L68.1,20z"/>
			<path class="st0" d="M82.4,25l-1.6-2.2h-3V25h-1v-5.8h4.6c0.6,0,1.1,0.2,1.4,0.5s0.5,0.8,0.5,1.3c0,0.3,0,0.5-0.1,0.7
				s-0.2,0.4-0.3,0.5c-0.1,0.1-0.3,0.3-0.5,0.3c-0.2,0.1-0.4,0.1-0.6,0.2l1.6,2.3H82.4z M81.4,21.9c0.4,0,0.6-0.1,0.8-0.2
				c0.2-0.2,0.3-0.4,0.3-0.7c0-0.6-0.4-1-1.2-1h-3.4v1.9C77.9,21.9,81.4,21.9,81.4,21.9z"/>
		</g>
		<g>
			<path class="st0" d="M103.7,25l-2.8-3.1l-1.8,1.3V25h-1v-5.8h1v3l4.1-3h1.4l-3,2.2l3.3,3.6C104.9,25,103.7,25,103.7,25z"/>
			<path class="st0" d="M115.6,25l-0.7-1.3H111l-0.7,1.3h-1.1l3.1-5.8h1.2l3.1,5.8H115.6z M113,20l-1.5,2.8h3L113,20z"/>
			<path class="st0" d="M121.7,25v-5.8h1v5h4.5V25H121.7z"/>
			<path class="st0" d="M138.3,25l-0.7-1.3h-3.9L133,25h-1l3.1-5.8h1.2l3.1,5.8H138.3z M135.7,20l-1.5,2.8h3L135.7,20z"/>
		</g>
	</g>
	<g>
		<g>
			<polygon class="st0" points="25.7,25 24.5,25 24.5,24.5 25.2,24.5 25.2,0.5 1.1,0.5 1.1,2.4 0.6,2.4 0.6,0 25.7,0 			"/>
			<g>
				<polygon class="st0" points="24.6,24.8 24.2,24.8 24.2,17.4 20.6,17.4 20.6,25 20.2,25 20.2,17.1 24.6,17.1 				"/>
				<path class="st0" d="M24.5,25l-3.4-0.9v-5.9l3.4-0.9V25z M21.3,23.9l2.9,0.7v-7l-2.9,0.7V23.9z"/>
				<g>
					<path class="st0" d="M21.6,21L21.6,21c0.1,0,0.1,0,0.1,0c0.1,0,0.1,0.1,0.1,0.2s0,0.1-0.1,0.1c0,0,0,0-0.1,0
						C21.7,21.3,21.7,21.1,21.6,21z M21.7,21.3v-0.1C21.7,21.2,21.7,21.2,21.7,21.3z M21.7,21.3v-0.1C21.7,21.2,21.7,21.2,21.7,21.3
						z"/>
					<path class="st0" d="M21.7,21.3c0,0.1-0.1,0.1-0.2,0s-0.1-0.2,0-0.3c0-0.1,0.1-0.1,0.2,0l0.1,0.1
						C21.7,21.2,21.7,21.3,21.7,21.3z M21.6,21.1c0,0-0.1-0.1-0.1,0c-0.1,0.1-0.1,0.2,0,0.3h0.1v-0.1C21.6,21.2,21.6,21.1,21.6,21.1
						z M21.6,21.4l0.1-0.1c0-0.1,0-0.1-0.1-0.2h-0.1l0,0c0,0,0.1,0,0.1,0.1C21.7,21.2,21.7,21.3,21.6,21.4L21.6,21.4
						C21.5,21.4,21.5,21.4,21.6,21.4C21.5,21.4,21.6,21.4,21.6,21.4z"/>
					<path class="st0" d="M21.6,21.4h0.1c0.1-0.1,0.1-0.2,0-0.3c0-0.1-0.1-0.1-0.2,0l0,0c0,0,0.1-0.1,0.2,0s0.1,0.3,0,0.4
						C21.7,21.4,21.7,21.4,21.6,21.4L21.6,21.4z M21.8,21.2c0-0.1,0-0.1-0.1-0.1C21.8,21.1,21.8,21.1,21.8,21.2s0,0.1-0.1,0.2
						C21.8,21.3,21.8,21.2,21.8,21.2z"/>
					<path class="st0" d="M21.4,21.2L21.4,21.2C21.4,21.1,21.5,21.1,21.4,21.2c0.1-0.1,0.1-0.1,0.1-0.1c0,0.1,0,0.2,0,0.2h-0.1
						C21.5,21.3,21.4,21.3,21.4,21.2c0,0.1,0,0.1,0.1,0.1h0.1c0.1-0.1,0.1-0.2,0-0.2S21.5,21.1,21.4,21.2
						C21.4,21.1,21.4,21.2,21.4,21.2z"/>
				</g>
			</g>
		</g>
		<g>
			<polygon class="st0" points="1.1,25 0.7,24.8 9.8,3.9 10.4,3.9 			"/>
			<path class="st0" d="M15.8,24.5L1.1,14.6v9.9V25H0.6V3.9h0.5v10l16.3,11h-0.9L15.8,24.5z"/>
			<polygon class="st0" points="19.7,25 6.4,16.1 11.5,3.9 12.1,3.9 7,15.9 20.6,25 			"/>
		</g>
		<polygon class="st1" points="20.6,24.9 20.6,25 20.2,24.8 20.2,24.7 		"/>
	</g>
</g>
</svg>
