<?xml version="1.0" encoding="utf-8"?>
<!-- Generator: Adobe Illustrator 24.1.0, SVG Export Plug-In . SVG Version: 6.00 Build 0)  -->
<svg version="1.1" id="Layer_1" xmlns="http://www.w3.org/2000/svg" xmlns:xlink="http://www.w3.org/1999/xlink" x="0px" y="0px"
	 viewBox="0 0 90 25" style="enable-background:new 0 0 90 25;" xml:space="preserve">
<style type="text/css">
	.st0{fill:#FFFFFF;}
	.st1{opacity:0.5;fill:#FFFFFF;enable-background:new    ;}
</style>
<g>
	<g>
		<g>
			<path class="st0" d="M38.2,13.4l-2.8-3.1l-1.8,1.3v1.8h-1V7.5h1v3l4.1-3h1.4l-3,2.2l3.3,3.6h-1.2V13.4z"/>
			<path class="st0" d="M44.5,13.4V7.5h5.9v0.9h-4.9v1.5H49v0.9h-3.4v1.7h5.1v0.9C50.6,13.4,44.5,13.4,44.5,13.4z"/>
			<path class="st0" d="M59.8,7.5c0.5,0,1,0.1,1.4,0.2s0.8,0.3,1,0.6c0.3,0.3,0.5,0.6,0.7,0.9c0.2,0.4,0.2,0.8,0.2,1.2
				s-0.1,0.8-0.2,1.1c-0.2,0.3-0.4,0.7-0.7,0.9c-0.3,0.3-0.6,0.4-1,0.6c-0.4,0.1-0.8,0.2-1.2,0.2H56V7.5H59.8z M60,12.5
				c0.3,0,0.6,0,0.8-0.1s0.5-0.2,0.6-0.4c0.2-0.2,0.3-0.4,0.4-0.6c0.1-0.2,0.1-0.5,0.1-0.8s-0.1-0.6-0.2-0.9
				c-0.1-0.3-0.3-0.5-0.4-0.7c-0.2-0.2-0.4-0.3-0.7-0.4c-0.3-0.1-0.6-0.1-0.9-0.1h-2.8v4.1H60V12.5z"/>
			<path class="st0" d="M73.9,13.4l-0.7-1.3h-3.9l-0.7,1.3h-1.1l3.1-5.8h1.2l3.1,5.8H73.9z M71.2,8.4l-1.5,2.8h3L71.2,8.4z"/>
			<path class="st0" d="M85.5,13.4L84,11.2h-3v2.2h-1V7.5h4.6c0.6,0,1.1,0.2,1.4,0.5c0.3,0.3,0.5,0.8,0.5,1.3c0,0.3,0,0.5-0.1,0.7
				s-0.2,0.4-0.3,0.5s-0.3,0.3-0.5,0.3S85.2,10.9,85,11l1.6,2.3L85.5,13.4L85.5,13.4z M84.4,10.3c0.4,0,0.6-0.1,0.8-0.2
				c0.2-0.2,0.3-0.4,0.3-0.7c0-0.6-0.4-1-1.2-1h-3.4v1.9H84.4z"/>
		</g>
		<g>
			<path class="st0" d="M38.2,25l-2.8-3.1l-1.8,1.3V25h-1v-5.8h1v3l4.1-3h1.4l-3,2.2l3.3,3.6C39.5,25,38.2,25,38.2,25z"/>
			<path class="st0" d="M50.1,25l-0.7-1.3h-3.9L44.8,25h-1.1l3.1-5.8H48l3.1,5.8H50.1z M47.5,20L46,22.8h3L47.5,20z"/>
			<path class="st0" d="M56.2,25v-5.8h1v5h4.5V25H56.2z"/>
			<path class="st0" d="M72.8,25L72,23.7h-3.9L67.4,25h-1.1l3.1-5.8h1.2l3.1,5.8H72.8z M70.1,20l-1.5,2.8h3L70.1,20z"/>
		</g>
	</g>
	<g>
		<g>
			<polygon class="st0" points="28.5,25 27.3,25 27.3,24.5 28,24.5 28,0.5 3.9,0.5 3.9,2.4 3.4,2.4 3.4,0 28.5,0 			"/>
			<g>
				<polygon class="st0" points="27.3,24.8 27,24.8 27,17.4 23.3,17.4 23.3,25 23,25 23,17 27.3,17 				"/>
				<path class="st0" d="M27.3,25l-3.4-0.9v-5.9l3.4-0.9V25z M24.1,23.9l2.9,0.7v-7l-2.9,0.7V23.9z"/>
				<g>
					<path class="st0" d="M24.3,21C24.4,21,24.4,21,24.3,21C24.4,21,24.4,21,24.3,21c0.1,0,0.2,0.1,0.2,0.2c0,0.1,0,0.1-0.1,0.1
						c0,0,0,0-0.1,0C24.5,21.2,24.5,21,24.3,21z M24.4,21.2v-0.1C24.5,21.1,24.5,21.2,24.4,21.2z M24.4,21.2v-0.1
						C24.5,21.1,24.5,21.2,24.4,21.2z"/>
					<path class="st0" d="M24.4,21.3c0,0.1-0.1,0.1-0.2,0c-0.1-0.1-0.1-0.2,0-0.3c0-0.1,0.1-0.1,0.2,0l0.1,0.1
						C24.4,21.2,24.4,21.2,24.4,21.3z M24.3,21L24.3,21c-0.2,0.1-0.2,0.2-0.1,0.3h0.1v-0.1C24.4,21.1,24.4,21.1,24.3,21z M24.3,21.3
						l0.1-0.1c0-0.1,0-0.1-0.1-0.2h-0.1l0,0c0,0,0.1,0,0.1,0.1C24.4,21.1,24.4,21.2,24.3,21.3L24.3,21.3L24.3,21.3L24.3,21.3z"/>
					<path class="st0" d="M24.4,21.3L24.4,21.3c0.2-0.1,0.2-0.2,0.1-0.3c0-0.1-0.1-0.1-0.2,0l0,0c0,0,0.1-0.1,0.2,0
						C24.6,21.1,24.6,21.3,24.4,21.3C24.5,21.4,24.4,21.4,24.4,21.3L24.4,21.3z M24.6,21.1C24.6,21,24.6,21,24.6,21.1
						C24.5,21,24.5,21.1,24.6,21.1c0,0.1,0,0.1-0.1,0.2C24.5,21.3,24.6,21.2,24.6,21.1z"/>
					<path class="st0" d="M24.2,21.1L24.2,21.1L24.2,21.1C24.3,21,24.3,21,24.2,21.1c0.1,0,0.1,0.1,0.1,0.1h-0.1
						C24.2,21.2,24.2,21.2,24.2,21.1c0,0.1,0,0.1,0.1,0.1h0.1c0.1-0.1,0.1-0.2,0-0.2S24.2,21,24.2,21.1L24.2,21.1z"/>
				</g>
			</g>
		</g>
		<g>
			<polygon class="st0" points="3.9,25 3.5,24.8 12.6,3.9 13.1,3.9 			"/>
			<path class="st0" d="M18.6,24.5L4,14.6v9.9V25H3.5V4H4v10l16.3,11h-0.9L18.6,24.5z"/>
			<polygon class="st0" points="22.4,25 9.2,16 14.3,3.9 14.8,3.9 9.8,15.8 23.3,25 			"/>
		</g>
		<polygon class="st1" points="23.3,24.9 23.3,25 23,24.7 23,24.7 		"/>
	</g>
</g>
</svg>
