<?xml version="1.0" encoding="utf-8"?>
<!-- Generator: Adobe Illustrator 25.2.3, SVG Export Plug-In . SVG Version: 6.00 Build 0)  -->
<svg version="1.1" id="Layer_1" xmlns="http://www.w3.org/2000/svg" xmlns:xlink="http://www.w3.org/1999/xlink" x="0px" y="0px"
	 viewBox="0 0 58 53" style="enable-background:new 0 0 58 53;" xml:space="preserve">
<style type="text/css">
	.st0{fill:#606060;}
</style>
<g>
	<path class="st0" d="M18.4,1C10.3-2.6-1.8,4.2,0.2,13.8C1.4,19.2,6.3,23,11.6,24c4.6,0.8,8.8-1.2,11.8-4.3c-0.6,4.5-2.5,9-4.4,12.7
		C16,38.6,11.5,45.2,5.7,49.1c-2.2,1.5-0.1,5,2.1,3.5C20.7,44.1,39.7,10.6,18.4,1z M22.6,14c-2.6,4.4-6.9,7.1-12.1,5.6
		c-4.4-1.3-7.7-6.1-5.7-10.5c3.9-8.3,15-5.3,17.8,2c0.1,0.9,0.1,1.8,0.1,2.7C22.7,13.9,22.7,13.9,22.6,14z"/>
	<path class="st0" d="M48.4,1c-8.1-3.6-20.2,3.2-18.2,12.8c1.1,5.4,6.1,9.3,11.3,10.2c4.6,0.8,8.8-1.2,11.8-4.3
		c-0.6,4.5-2.5,9-4.4,12.7c-3.1,6.2-7.5,12.8-13.4,16.7c-2.2,1.5-0.1,5,2.1,3.5C50.7,44.1,69.7,10.6,48.4,1z M52.6,14
		c-2.6,4.4-6.9,7.1-12.1,5.6c-4.4-1.3-7.7-6.1-5.7-10.5c3.7-7.9,14-5.5,17.4,1.1C52.6,11.4,52.7,12.6,52.6,14
		C52.7,13.9,52.7,14,52.6,14z"/>
</g>
</svg>
